<svg xmlns="http://www.w3.org/2000/svg" viewBox="0 0 156 156"><defs><style>.cls-1{fill:#e5dec6;}.cls-2{fill:#191d31;}</style></defs><g id="Layer_2" data-name="Layer 2"><g id="Layer_1-2" data-name="Layer 1"><rect class="cls-1" x="1" y="1" width="154" height="154" rx="1"/><path d="M154,2V154H2V2H154m0-2H2A2,2,0,0,0,0,2V154a2,2,0,0,0,2,2H154a2,2,0,0,0,2-2V2a2,2,0,0,0-2-2Z"/><path class="cls-2" d="M152,146.25h-7.83c-2,0-3.71-1.17-3.71-2.61V129.36c0-1.44,1.66-2.61,3.71-2.61H152V122H4v4.75H17.73c2.05,0,3.71,1.17,3.71,2.61v14.28c0,1.44-1.66,2.61-3.71,2.61H4V151H152Zm-121.64,0c-2.06,0-3.72-1.17-3.72-2.61V129.36c0-1.44,1.66-2.61,3.72-2.61H46.21c2,0,3.71,1.17,3.71,2.61v14.28c0,1.44-1.66,2.61-3.71,2.61Zm28.45,0c-2.05,0-3.72-1.17-3.72-2.61V129.36c0-1.44,1.67-2.61,3.72-2.61H74.69c2,0,3.71,1.17,3.71,2.61v14.28c0,1.44-1.66,2.61-3.71,2.61Zm28.45,0c-2.05,0-3.71-1.17-3.71-2.61V129.36c0-1.44,1.66-2.61,3.71-2.61h15.9c2.06,0,3.72,1.17,3.72,2.61v14.28c0,1.44-1.66,2.61-3.72,2.61Zm28.46,0c-2,0-3.72-1.17-3.72-2.61V129.36c0-1.44,1.67-2.61,3.72-2.61h15.92c2.05,0,3.72,1.17,3.72,2.61v14.28c0,1.44-1.67,2.61-3.72,2.61Z"/><path class="cls-2" d="M152,29.25h-7.83c-2,0-3.71-1.17-3.71-2.61V12.36c0-1.44,1.66-2.61,3.71-2.61H152V5H4V9.75H17.73c2.05,0,3.71,1.17,3.71,2.61V26.64c0,1.44-1.66,2.61-3.71,2.61H4V34H152Zm-121.64,0c-2.06,0-3.72-1.17-3.72-2.61V12.36c0-1.44,1.66-2.61,3.72-2.61H46.21c2,0,3.71,1.17,3.71,2.61V26.64c0,1.44-1.66,2.61-3.71,2.61Zm28.45,0c-2.05,0-3.72-1.17-3.72-2.61V12.36c0-1.44,1.67-2.61,3.72-2.61H74.69c2,0,3.71,1.17,3.71,2.61V26.64c0,1.44-1.66,2.61-3.71,2.61Zm28.45,0c-2.05,0-3.71-1.17-3.71-2.61V12.36c0-1.44,1.66-2.61,3.71-2.61h15.9c2.06,0,3.72,1.17,3.72,2.61V26.64c0,1.44-1.66,2.61-3.72,2.61Zm28.46,0c-2,0-3.72-1.17-3.72-2.61V12.36c0-1.44,1.67-2.61,3.72-2.61h15.92c2.05,0,3.72,1.17,3.72,2.61V26.64c0,1.44-1.67,2.61-3.72,2.61Z"/><path class="cls-2" d="M111.07,66.07h58a6,6,0,0,1,6,6V89.93a0,0,0,0,1,0,0h-70a0,0,0,0,1,0,0V72.07A6,6,0,0,1,111.07,66.07Z" transform="translate(62.07 218.07) rotate(-90)"/><path class="cls-2" d="M-12.93,66.07h58a6,6,0,0,1,6,6V89.93a0,0,0,0,1,0,0h-70a0,0,0,0,1,0,0V72.07A6,6,0,0,1-12.93,66.07Z" transform="translate(94.07 61.93) rotate(90)"/><rect class="cls-2" x="43.15" y="38.71" width="70" height="78" rx="6" transform="translate(0.44 155.85) rotate(-90)"/></g></g></svg>