<svg xmlns="http://www.w3.org/2000/svg" viewBox="0 0 156 156"><defs><style>.cls-1{fill:#e5dec6;}.cls-2{fill:#191d31;}</style></defs><g id="Layer_2" data-name="Layer 2"><g id="Layer_1-2" data-name="Layer 1"><rect class="cls-1" x="1" y="1" width="154" height="154" rx="1"/><path d="M154,2V154H2V2H154m0-2H2A2,2,0,0,0,0,2V154a2,2,0,0,0,2,2H154a2,2,0,0,0,2-2V2a2,2,0,0,0-2-2Z"/><path class="cls-2" d="M152,146.25h-7.83c-2,0-3.71-1.17-3.71-2.61V129.36c0-1.44,1.66-2.61,3.71-2.61H152V122H4v4.75H17.73c2.05,0,3.71,1.17,3.71,2.61v14.28c0,1.44-1.66,2.61-3.71,2.61H4V151H152Zm-121.64,0c-2.06,0-3.72-1.17-3.72-2.61V129.36c0-1.44,1.66-2.61,3.72-2.61H46.21c2,0,3.71,1.17,3.71,2.61v14.28c0,1.44-1.66,2.61-3.71,2.61Zm28.45,0c-2.05,0-3.72-1.17-3.72-2.61V129.36c0-1.44,1.67-2.61,3.72-2.61H74.69c2,0,3.71,1.17,3.71,2.61v14.28c0,1.44-1.66,2.61-3.71,2.61Zm28.45,0c-2.05,0-3.71-1.17-3.71-2.61V129.36c0-1.44,1.66-2.61,3.71-2.61h15.9c2.06,0,3.72,1.17,3.72,2.61v14.28c0,1.44-1.66,2.61-3.72,2.61Zm28.46,0c-2,0-3.72-1.17-3.72-2.61V129.36c0-1.44,1.67-2.61,3.72-2.61h15.92c2.05,0,3.72,1.17,3.72,2.61v14.28c0,1.44-1.67,2.61-3.72,2.61Z"/><path class="cls-2" d="M152,29.25h-7.83c-2,0-3.71-1.17-3.71-2.61V12.36c0-1.44,1.66-2.61,3.71-2.61H152V5H4V9.75H17.73c2.05,0,3.71,1.17,3.71,2.61V26.64c0,1.44-1.66,2.61-3.71,2.61H4V34H152Zm-121.64,0c-2.06,0-3.72-1.17-3.72-2.61V12.36c0-1.44,1.66-2.61,3.72-2.61H46.21c2,0,3.71,1.17,3.71,2.61V26.64c0,1.44-1.66,2.61-3.71,2.61Zm28.45,0c-2.05,0-3.72-1.17-3.72-2.61V12.36c0-1.44,1.67-2.61,3.72-2.61H74.69c2,0,3.71,1.17,3.71,2.61V26.64c0,1.44-1.66,2.61-3.71,2.61Zm28.45,0c-2.05,0-3.71-1.17-3.71-2.61V12.36c0-1.44,1.66-2.61,3.71-2.61h15.9c2.06,0,3.72,1.17,3.72,2.61V26.64c0,1.44-1.66,2.61-3.72,2.61Zm28.46,0c-2,0-3.72-1.17-3.72-2.61V12.36c0-1.44,1.67-2.61,3.72-2.61h15.92c2.05,0,3.72,1.17,3.72,2.61V26.64c0,1.44-1.67,2.61-3.72,2.61Z"/><path class="cls-2" d="M65,45.64c0,.2-.18.31-.55.33a4.77,4.77,0,0,0-2.08.38,4.21,4.21,0,0,0-1,1.85c-.22.56-.55,1.41-1,2.56-.32,1-.82,2.41-1.5,4.39-.34.92-.86,2.32-1.55,4.2l-1.8,5q-1.87,5.31-2.1,6.11-.15.48-.33.48c-.14,0-.27-.12-.36-.35s-.38-1.06-.85-2.5Q51,65.25,49.22,61L48,58q-3.66,7.83-5.26,12.44c-.13.34-.26.51-.41.51A7.15,7.15,0,0,1,41.4,69L36.94,57.36Q35.33,53,32.81,46.89a1.25,1.25,0,0,0-.85-.81A4.87,4.87,0,0,0,30.68,46c-.63,0-.95-.11-.95-.33s.17-.29.52-.29h9.61q.48,0,.48.36c0,.22-.39.32-1.17.29-.42,0-.62.11-.62.33a.89.89,0,0,0,.07.33c.54,1.47,1.35,3.68,2.44,6.61l3.76,9.67,2.56-5.86q-.54-1.61-2.08-5.74c-.2-.44-.47-1.1-.81-2-.07-.21-.19-.55-.37-1a5.74,5.74,0,0,0-1-2A2.81,2.81,0,0,0,41.4,46c-.24,0-.37-.13-.37-.33s.24-.32.7-.32H56.5c.47,0,.7.08.7.33S57,46,56.65,46q-2.59,0-3,.87a59.69,59.69,0,0,0-2.6,5.57q1.28,3.29,4.06,10.4c.39-1,.81-2.1,1.26-3.32Q57,58,58.28,54.27c.56-1.64,1-3,1.44-4a13.05,13.05,0,0,0,1-3.36A.85.85,0,0,0,60,46a6.43,6.43,0,0,0-1.32-.08c-.39,0-.58-.09-.58-.29s.18-.29.55-.29h2.88q1.88,0,2.82,0h.29C64.87,45.35,65,45.45,65,45.64ZM52.45,47c0-.65-.59-1-1.76-1s-1.79.22-1.79.65a17.07,17.07,0,0,0,1.75,4.65A19.91,19.91,0,0,0,52.45,47Z"/><path class="cls-2" d="M80.64,68.68c0,.2-.19.47-.58.82A5.49,5.49,0,0,1,76.18,71,3.14,3.14,0,0,1,74,70.32a3.7,3.7,0,0,1-.89-2.26,5,5,0,0,1-4.5,3,3.38,3.38,0,0,1-2.54-1,3.48,3.48,0,0,1-1-2.56q0-4.61,7.9-5.45v-.77a22,22,0,0,0-.26-4.49l0-.19a2.41,2.41,0,0,0-2.6-1.83,2.71,2.71,0,0,0-1.94.7,1.92,1.92,0,0,0-.73,1.35c0,.25.29.39.88.44.87.07,1.31.61,1.31,1.61a1.76,1.76,0,0,1-.53,1.33,1.83,1.83,0,0,1-1.37.54A2.44,2.44,0,0,1,66,60.1a2.11,2.11,0,0,1-.67-1.62,3.68,3.68,0,0,1,1.57-2.86A6.37,6.37,0,0,1,71,54.34c2.54,0,4.31.46,5.31,1.36.8.75,1.2,2.07,1.2,3.95V65.9c0,1.22,0,1.93,0,2.12.12,1,.47,1.54,1.06,1.54a2.52,2.52,0,0,0,1.54-.88.5.5,0,0,1,.29-.18A.16.16,0,0,1,80.64,68.68ZM73,64.33V62.54q-3.56.69-3.55,4c0,1.71.59,2.56,1.76,2.56A1.44,1.44,0,0,0,72.6,68,12.13,12.13,0,0,0,73,64.33Z"/><path class="cls-2" d="M92.6,68.28c0,.27-.23.62-.7,1.06a6.89,6.89,0,0,1-5,1.72c-1.94,0-3.22-.48-3.84-1.43a2.41,2.41,0,0,1-.42-1c0-.32,0-1.14,0-2.45V64.4a13.61,13.61,0,0,0,.07-1.46l-.07-.77V56.25c0-.44-.07-.7-.19-.77a3,3,0,0,0-1.09-.11c-.74,0-1.1-.1-1.1-.29s.13-.25.4-.3q3.44-.11,5.93-3.73.33-.51.51-.51c.14,0,.22.17.22.51,0,2.1.06,3.25.25,3.44s.8.29,1.8.29a10.64,10.64,0,0,0,2.15-.14.28.28,0,0,1,.15,0c.1,0,.15.08.15.23q0,.54-.48.54c-1,0-2.09,0-3.3,0h-.5v.76q0,9.75.14,11.42c.23,1.41.92,2.12,2.08,2.12a3.48,3.48,0,0,0,2-1.1c.39-.34.64-.51.74-.51S92.6,68.16,92.6,68.28Z"/><path class="cls-2" d="M106.35,58.11a2,2,0,0,1-.51,1.43,1.74,1.74,0,0,1-1.32.55c-1.29,0-1.94-.58-1.94-1.72a2.89,2.89,0,0,1,.24-1,2.83,2.83,0,0,0,.24-.86,1.57,1.57,0,0,0-.53-1.19,1.84,1.84,0,0,0-1.3-.5q-3.33,0-3.33,7.43,0,4.25,1.47,6.07a3.44,3.44,0,0,0,2.78,1.39c1.14,0,2.31-.74,3.51-2.23.14-.2.28-.29.4-.29s.15.07.15.21c0,.47-.44,1.11-1.32,1.94a6.41,6.41,0,0,1-4.57,1.8,7.61,7.61,0,0,1-5.62-2.36A7.86,7.86,0,0,1,92.38,63a8.48,8.48,0,0,1,2.45-6.16,8.12,8.12,0,0,1,6-2.51,6.7,6.7,0,0,1,3.89,1.1A3.19,3.19,0,0,1,106.35,58.11Z"/><path class="cls-2" d="M125.88,70.51c0,.15-.11.22-.33.22h-2.92c-2.1,0-3.39,0-3.88-.11h-.59l-.87.11c-.32,0-.48-.07-.48-.28s.06-.23.18-.23h.84c.54,0,.85-.12.92-.44s.07-1.42.07-3.66V60.67a13.5,13.5,0,0,0-.32-4,1.84,1.84,0,0,0-1.82-.95A2.42,2.42,0,0,0,114.5,57a6.4,6.4,0,0,0-.36,2.69v10c0,.37.48.55,1.51.55.21,0,.32.08.32.22s-.16.26-.48.26h-.29a2.73,2.73,0,0,0-.88-.11h-1.61l-2,0-2.16.07h-1.1c-.36,0-.55-.07-.55-.22a.16.16,0,0,1,.08-.15,1,1,0,0,1,.33,0,6.67,6.67,0,0,0,1.64-.11q.25-.12.33-.84c0-.3,0-1.76,0-4.39V51.57a31.1,31.1,0,0,0-.17-4.56c-.11-.4-.63-.6-1.55-.6-.71,0-1.06-.07-1.06-.22s.41-.24,1.23-.29A23.3,23.3,0,0,0,113,45a2.68,2.68,0,0,1,.69-.15c.2,0,.3.68.3,2.05V56.94a6.6,6.6,0,0,1,2.06-2,5.79,5.79,0,0,1,2.73-.55q3.61,0,4.53,2.93a10.23,10.23,0,0,1,.33,3.07v8.52c0,.64.1,1,.31,1.17a3.29,3.29,0,0,0,1.56.22C125.76,70.25,125.88,70.34,125.88,70.51Z"/><path class="cls-2" d="M66.69,99.93c0,.47,0,.86,0,1.17a24.15,24.15,0,0,0-.11,2.6l0,2.6q-4.68-.19-16.93-.19H48.11c-1.07,0-1.61-.1-1.61-.31s.17-.31.51-.31a3.83,3.83,0,0,0,2.34-.51c.22-.19.33-.78.33-1.75V83.44a3.16,3.16,0,0,0-.22-1.54,1.59,1.59,0,0,0-1.37-.51h-.92c-.28,0-.41-.09-.41-.27s.17-.28.51-.28H57.55c.24,0,.36.1.36.29s-.32.33-.95.33q-1.35,0-1.59.33a8.59,8.59,0,0,0-.24,2.89v8.71q0,2.67.15,12c.46,0,1,0,1.57,0a31.2,31.2,0,0,0,5.3-.29,4.12,4.12,0,0,0,3.15-2.34,13.27,13.27,0,0,0,.8-3c.08-.39.19-.58.33-.58S66.69,99.4,66.69,99.93Z"/><path class="cls-2" d="M80.33,105.89c0,.18-.11.26-.33.26H70.78c-.29,0-.43-.08-.43-.23s.28-.19.84-.21c.83,0,1.31-.11,1.46-.27a2.73,2.73,0,0,0,.22-1.46V93.43a3.27,3.27,0,0,0-.24-1.67c-.16-.18-.64-.28-1.44-.28a7,7,0,0,1-.9,0c-.08,0-.13-.11-.13-.26s.19-.25.55-.25a18.06,18.06,0,0,0,6.88-1.25c0,.3.11,1.1.18,2.42v11.52c0,1,.09,1.58.28,1.75a3.73,3.73,0,0,0,1.88.26C80.2,105.64,80.33,105.72,80.33,105.89ZM77.77,82.71a2.42,2.42,0,0,1-.71,1.75,2.3,2.3,0,0,1-1.72.73,2.44,2.44,0,0,1-1.76-.69,2.37,2.37,0,0,1-.71-1.76,2.2,2.2,0,0,1,.71-1.68,2.61,2.61,0,0,1,1.84-.66,2.31,2.31,0,0,1,1.68.66A2.21,2.21,0,0,1,77.77,82.71Z"/><path class="cls-2" d="M95.65,101.07a5.38,5.38,0,0,1-1.49,4,5.18,5.18,0,0,1-3.87,1.52,8.32,8.32,0,0,1-2.77-.58,6.67,6.67,0,0,0-1.71-.48.89.89,0,0,0-.91.53c-.15.36-.26.53-.33.53s-.22-.08-.22-.26a6.34,6.34,0,0,1,.06-.69,22.16,22.16,0,0,0,.09-2.43v-1.81c0-.27.06-.4.18-.4s.26.18.33.55a5.27,5.27,0,0,0,1.86,3.23,5.13,5.13,0,0,0,3.42,1.3A2.56,2.56,0,0,0,93,103.33a2.11,2.11,0,0,0-.69-1.6,9.11,9.11,0,0,0-2.74-1.21,9.61,9.61,0,0,1-4-2.21A4.63,4.63,0,0,1,84.35,95a5,5,0,0,1,1.47-3.66,4.8,4.8,0,0,1,3.58-1.5,13.12,13.12,0,0,1,2.78.51,1.83,1.83,0,0,0,.44.07,1.31,1.31,0,0,0,1.21-1c0-.13.1-.19.18-.19s.25.15.25.44l0,.7a2.06,2.06,0,0,0,0,.51A27,27,0,0,0,94.37,94v.18c0,.2-.07.3-.22.3s-.22-.11-.29-.33c-.71-2.49-2.14-3.73-4.31-3.73a3,3,0,0,0-2,.66,2.09,2.09,0,0,0-.78,1.68,1.88,1.88,0,0,0,.65,1.5A9.65,9.65,0,0,0,90,95.47a12.61,12.61,0,0,1,4.49,2.34A4.41,4.41,0,0,1,95.65,101.07Z"/><path class="cls-2" d="M111.6,103.77c0,.27-.23.63-.7,1.06a6.89,6.89,0,0,1-5,1.72c-1.94,0-3.22-.47-3.84-1.42a2.49,2.49,0,0,1-.42-1c0-.31,0-1.13,0-2.45V99.9c0-.47.07-1,.07-1.47l-.07-.76V91.74c0-.44-.07-.69-.19-.77a3.1,3.1,0,0,0-1.1-.11c-.73,0-1.09-.09-1.09-.29s.13-.24.4-.29q3.44-.12,5.93-3.73c.21-.34.39-.51.51-.51s.22.17.22.51c0,2.09.06,3.24.25,3.44a3.2,3.2,0,0,0,1.79.29,10.49,10.49,0,0,0,2.16-.15.4.4,0,0,1,.15,0c.1,0,.14.07.14.22,0,.36-.15.54-.47.54-1,0-2.09,0-3.3,0h-.5v.76c0,6.51,0,10.31.14,11.43.22,1.41.92,2.11,2.08,2.11a3.48,3.48,0,0,0,2-1.1c.39-.34.64-.51.74-.51S111.6,103.65,111.6,103.77Z"/><path class="cls-2" d="M-16,69H42a6,6,0,0,1,6,6V87a0,0,0,0,1,0,0H-22a0,0,0,0,1,0,0V75A6,6,0,0,1-16,69Z" transform="translate(91 65) rotate(90)"/><path class="cls-2" d="M114,69h58a6,6,0,0,1,6,6V87a0,0,0,0,1,0,0H108a0,0,0,0,1,0,0V75A6,6,0,0,1,114,69Z" transform="translate(65 221) rotate(-90)"/></g></g></svg>