<svg xmlns="http://www.w3.org/2000/svg" viewBox="0 0 156 190.41"><defs><style>.cls-1{fill:#191d31;}.cls-2{fill:#e5dec6;}</style></defs><g id="Layer_2" data-name="Layer 2"><g id="Layer_1-2" data-name="Layer 1"><path class="cls-1" d="M33.64,167.06c0,.18-.16.28-.5.3a4.35,4.35,0,0,0-1.91.35,4,4,0,0,0-.91,1.7q-.3.76-.9,2.34c-.29.88-.75,2.22-1.38,4-.31.85-.79,2.13-1.42,3.85L25,184.23c-1.15,3.25-1.8,5.11-1.93,5.61-.09.29-.19.43-.3.43s-.25-.1-.34-.32-.34-1-.77-2.29c-.56-1.75-1.37-3.92-2.45-6.51L18,178.4c-2.24,4.79-3.84,8.59-4.83,11.4-.11.32-.23.47-.37.47a6.16,6.16,0,0,1-.84-1.78L7.91,177.81q-1.47-4-3.79-9.61a1.1,1.1,0,0,0-.77-.74,4.72,4.72,0,0,0-1.17-.1c-.58,0-.88-.1-.88-.3s.16-.27.47-.27H10.6c.29,0,.43.11.43.33s-.36.29-1.07.27q-.57,0-.57.3a.72.72,0,0,0,.07.3c.49,1.36,1.23,3.38,2.24,6.07l3.44,8.86,2.35-5.37c-.33-1-1-2.73-1.91-5.27-.18-.39-.42-1-.74-1.82-.07-.19-.18-.5-.34-.92a5.23,5.23,0,0,0-.94-1.84,2.61,2.61,0,0,0-1.55-.31c-.23,0-.34-.12-.34-.3s.21-.3.64-.3H25.86c.42,0,.64.08.64.3s-.17.27-.51.27c-1.58,0-2.5.24-2.75.8a52.92,52.92,0,0,0-2.38,5.11l3.72,9.54c.36-.91.75-1.93,1.15-3.05q.54-1.39,1.76-4.79c.52-1.5,1-2.71,1.32-3.65a12.28,12.28,0,0,0,.91-3.09.81.81,0,0,0-.67-.84,6.94,6.94,0,0,0-1.21-.06q-.54,0-.54-.27t.51-.27h2.65q1.71,0,2.58,0h.27Q33.64,166.79,33.64,167.06Zm-11.5,1.2c0-.6-.54-.9-1.61-.9s-1.65.2-1.65.6a15.94,15.94,0,0,0,1.61,4.27A18.26,18.26,0,0,0,22.14,168.26Z"/><path class="cls-1" d="M48,188.2c0,.18-.18.43-.54.74a5,5,0,0,1-3.55,1.33,2.9,2.9,0,0,1-2-.57,3.45,3.45,0,0,1-.82-2.08A4.58,4.58,0,0,1,37,190.37a3.13,3.13,0,0,1-2.33-.9,3.24,3.24,0,0,1-.89-2.35q0-4.23,7.25-5v-.7a19.93,19.93,0,0,0-.24-4.13l0-.17a2.2,2.2,0,0,0-2.38-1.67,2.5,2.5,0,0,0-1.78.63,1.78,1.78,0,0,0-.67,1.24c0,.23.27.36.8.41.81.06,1.21.56,1.21,1.47a1.7,1.7,0,0,1-.48,1.23,1.74,1.74,0,0,1-1.26.48,2.21,2.21,0,0,1-1.59-.58,2,2,0,0,1-.63-1.5,3.33,3.33,0,0,1,1.45-2.61A5.82,5.82,0,0,1,39.18,175c2.32,0,3.94.42,4.86,1.24a4.86,4.86,0,0,1,1.11,3.63v5.73q0,1.68,0,2c.11.94.44,1.41,1,1.41a2.32,2.32,0,0,0,1.41-.81.49.49,0,0,1,.27-.16A.15.15,0,0,1,48,188.2Zm-7-4v-1.64q-3.26.63-3.26,3.69c0,1.56.54,2.35,1.62,2.35a1.32,1.32,0,0,0,1.27-1A10.77,10.77,0,0,0,41,184.2Z"/><path class="cls-1" d="M59,187.82c0,.25-.22.58-.64,1a6.37,6.37,0,0,1-4.57,1.57c-1.78,0-2.95-.43-3.51-1.3a2.22,2.22,0,0,1-.39-.94c0-.29,0-1,0-2.25v-1.61a11.54,11.54,0,0,0,.07-1.34l-.07-.71v-5.43c0-.4-.06-.64-.17-.71a2.9,2.9,0,0,0-1-.1c-.67,0-1-.09-1-.27s.12-.22.37-.26q3.15-.1,5.43-3.43c.21-.31.36-.47.47-.47s.21.16.21.47c0,1.93,0,3,.23,3.16a2.87,2.87,0,0,0,1.64.27,9.74,9.74,0,0,0,2-.14.35.35,0,0,1,.14,0c.09,0,.13.07.13.21,0,.33-.14.49-.43.49-.91,0-1.92,0-3,0h-.46v.7q0,8.94.13,10.48c.21,1.29.84,1.93,1.91,1.93a3.17,3.17,0,0,0,1.84-1c.36-.32.59-.47.68-.47S59,187.71,59,187.82Z"/><path class="cls-1" d="M71.58,178.5a1.82,1.82,0,0,1-.47,1.31,1.58,1.58,0,0,1-1.21.5c-1.18,0-1.77-.53-1.77-1.58a2.78,2.78,0,0,1,.21-.95,2.44,2.44,0,0,0,.22-.79,1.43,1.43,0,0,0-.48-1.09,1.7,1.7,0,0,0-1.19-.45q-3.06,0-3.06,6.81c0,2.59.45,4.45,1.34,5.56a3.2,3.2,0,0,0,2.55,1.28c1,0,2.13-.68,3.22-2,.14-.18.26-.27.37-.27s.14.07.14.21c0,.42-.4,1-1.21,1.77a5.88,5.88,0,0,1-4.19,1.65,6.93,6.93,0,0,1-5.15-2.17A7.2,7.2,0,0,1,58.77,183,7.77,7.77,0,0,1,61,177.34a7.43,7.43,0,0,1,5.53-2.3,6.13,6.13,0,0,1,3.57,1A2.91,2.91,0,0,1,71.58,178.5Z"/><path class="cls-1" d="M89.5,189.87c0,.13-.11.2-.31.2H86.51A34.4,34.4,0,0,1,83,190h-.53l-.81.1c-.29,0-.43-.06-.43-.25s0-.22.16-.22h.78c.49,0,.77-.11.83-.4s.07-1.3.07-3.35v-5a12.07,12.07,0,0,0-.3-3.69,1.68,1.68,0,0,0-1.66-.88,2.22,2.22,0,0,0-2,1.18,5.89,5.89,0,0,0-.33,2.47v9.2c0,.34.43.5,1.38.5.2,0,.29.07.29.21s-.14.23-.43.23H79.7a2.38,2.38,0,0,0-.81-.1H77.42l-1.88,0-2,.07h-1c-.33,0-.5-.07-.5-.2s0-.11.07-.13a.63.63,0,0,1,.3,0,5.88,5.88,0,0,0,1.51-.1c.16-.07.26-.32.3-.77,0-.27,0-1.61,0-4V172.49a28.27,28.27,0,0,0-.16-4.17c-.1-.37-.57-.56-1.42-.56-.65,0-1-.06-1-.2s.37-.22,1.13-.27a20.75,20.75,0,0,0,4.84-.87,2.36,2.36,0,0,1,.64-.13c.17,0,.26.62.26,1.88v9.26a6,6,0,0,1,1.9-1.88A5.18,5.18,0,0,1,83,175q3.32,0,4.16,2.69a9.44,9.44,0,0,1,.3,2.81v7.82c0,.58.09.94.28,1.07a2.94,2.94,0,0,0,1.43.21C89.38,189.64,89.5,189.71,89.5,189.87Z"/><path class="cls-1" d="M113.38,184.3q0,.64,0,1.08a17.89,17.89,0,0,0-.1,2.38l0,2.38Q109,190,97.75,190H96.34c-1,0-1.48-.09-1.48-.28s.16-.29.47-.29a3.56,3.56,0,0,0,2.15-.47c.2-.18.3-.71.3-1.61V169.17a3,3,0,0,0-.2-1.41,1.48,1.48,0,0,0-1.26-.47h-.85c-.25,0-.37-.08-.37-.25s.15-.25.47-.25H105c.23,0,.34.09.34.27s-.29.3-.87.3c-.83,0-1.32.1-1.46.3a7.77,7.77,0,0,0-.22,2.65v8q0,2.44.13,11c.43,0,.91,0,1.45,0a29,29,0,0,0,4.86-.27,3.74,3.74,0,0,0,2.88-2.14,12,12,0,0,0,.74-2.79q.1-.54.3-.54C113.3,183.56,113.38,183.81,113.38,184.3Z"/><path class="cls-1" d="M125.89,189.77c0,.16-.1.23-.3.23h-8.46c-.26,0-.4-.07-.4-.21s.26-.17.77-.19c.77,0,1.21-.1,1.35-.25a2.56,2.56,0,0,0,.2-1.33v-9.68a3,3,0,0,0-.22-1.53c-.15-.17-.59-.26-1.33-.26a5.84,5.84,0,0,1-.82,0c-.08,0-.11-.1-.11-.24s.16-.23.5-.23a16.5,16.5,0,0,0,6.31-1.14c0,.27.1,1,.16,2.21v10.57a2.93,2.93,0,0,0,.25,1.61,3.46,3.46,0,0,0,1.73.23C125.77,189.53,125.89,189.61,125.89,189.77Zm-2.35-21.27a2.2,2.2,0,0,1-.65,1.61,2.1,2.1,0,0,1-1.58.67,2.22,2.22,0,0,1-1.61-.63,2.19,2.19,0,0,1-.65-1.61,2,2,0,0,1,.65-1.55,2.37,2.37,0,0,1,1.68-.6,2.15,2.15,0,0,1,1.55.6A2,2,0,0,1,123.54,168.5Z"/><path class="cls-1" d="M140,185.34a5,5,0,0,1-1.37,3.64,4.77,4.77,0,0,1-3.55,1.39,7.79,7.79,0,0,1-2.54-.53,6.39,6.39,0,0,0-1.57-.44.82.82,0,0,0-.84.49q-.2.48-.3.48c-.13,0-.2-.08-.2-.23s0-.35,0-.64a19.23,19.23,0,0,0,.08-2.23v-1.66c0-.24.06-.37.17-.37s.24.17.3.5a4.81,4.81,0,0,0,1.71,3A4.69,4.69,0,0,0,135,189.9a2.38,2.38,0,0,0,1.78-.68,2.43,2.43,0,0,0,.69-1.8,2,2,0,0,0-.64-1.47,8.35,8.35,0,0,0-2.52-1.11,8.91,8.91,0,0,1-3.64-2,4.29,4.29,0,0,1-1.12-3,4.63,4.63,0,0,1,1.34-3.35,4.42,4.42,0,0,1,3.29-1.38,12.26,12.26,0,0,1,2.55.47,1.58,1.58,0,0,0,.4.07c.49,0,.86-.3,1.11-.91,0-.11.1-.16.17-.16s.23.13.23.4l0,.64a2.23,2.23,0,0,0,0,.47,24.75,24.75,0,0,0,.17,2.81V179c0,.18-.06.27-.2.27s-.2-.1-.27-.3q-1-3.42-4-3.42a2.75,2.75,0,0,0-1.82.6,1.9,1.9,0,0,0-.73,1.54,1.71,1.71,0,0,0,.61,1.38,8.88,8.88,0,0,0,2.35,1.14,11.49,11.49,0,0,1,4.12,2.15A4,4,0,0,1,140,185.34Z"/><path class="cls-1" d="M154.57,187.82c0,.25-.21.58-.64,1a6.33,6.33,0,0,1-4.56,1.57c-1.78,0-3-.43-3.52-1.3a2.36,2.36,0,0,1-.39-.94c0-.29-.05-1-.05-2.25v-1.61a11.54,11.54,0,0,0,.07-1.34l-.07-.71v-5.43c0-.4,0-.64-.16-.71a3,3,0,0,0-1-.1c-.67,0-1-.09-1-.27s.13-.22.37-.26c2.1-.07,3.92-1.21,5.44-3.43.2-.31.35-.47.47-.47s.2.16.2.47c0,1.93,0,3,.23,3.16a2.89,2.89,0,0,0,1.65.27,9.74,9.74,0,0,0,2-.14.28.28,0,0,1,.13,0c.09,0,.13.07.13.21,0,.33-.14.49-.43.49-.91,0-1.92,0-3,0h-.46v.7q0,8.94.13,10.48c.21,1.29.84,1.93,1.91,1.93a3.15,3.15,0,0,0,1.84-1c.36-.32.59-.47.68-.47S154.57,187.71,154.57,187.82Z"/><rect class="cls-2" x="1" y="1" width="154" height="154" rx="1"/><path d="M154,2V154H2V2H154m0-2H2A2,2,0,0,0,0,2V154a2,2,0,0,0,2,2H154a2,2,0,0,0,2-2V2a2,2,0,0,0-2-2Z"/><path class="cls-1" d="M152,146.25h-7.83c-2,0-3.71-1.17-3.71-2.61V129.36c0-1.44,1.66-2.61,3.71-2.61H152V122H4v4.75H17.73c2.05,0,3.71,1.17,3.71,2.61v14.28c0,1.44-1.66,2.61-3.71,2.61H4V151H152Zm-121.64,0c-2.06,0-3.72-1.17-3.72-2.61V129.36c0-1.44,1.66-2.61,3.72-2.61H46.21c2,0,3.71,1.17,3.71,2.61v14.28c0,1.44-1.66,2.61-3.71,2.61Zm28.45,0c-2.05,0-3.72-1.17-3.72-2.61V129.36c0-1.44,1.67-2.61,3.72-2.61H74.69c2,0,3.71,1.17,3.71,2.61v14.28c0,1.44-1.66,2.61-3.71,2.61Zm28.45,0c-2.05,0-3.71-1.17-3.71-2.61V129.36c0-1.44,1.66-2.61,3.71-2.61h15.9c2.06,0,3.72,1.17,3.72,2.61v14.28c0,1.44-1.66,2.61-3.72,2.61Zm28.46,0c-2,0-3.72-1.17-3.72-2.61V129.36c0-1.44,1.67-2.61,3.72-2.61h15.92c2.05,0,3.72,1.17,3.72,2.61v14.28c0,1.44-1.67,2.61-3.72,2.61Z"/><path class="cls-1" d="M152,29.25h-7.83c-2,0-3.71-1.17-3.71-2.61V12.36c0-1.44,1.66-2.61,3.71-2.61H152V5H4V9.75H17.73c2.05,0,3.71,1.17,3.71,2.61V26.64c0,1.44-1.66,2.61-3.71,2.61H4V34H152Zm-121.64,0c-2.06,0-3.72-1.17-3.72-2.61V12.36c0-1.44,1.66-2.61,3.72-2.61H46.21c2,0,3.71,1.17,3.71,2.61V26.64c0,1.44-1.66,2.61-3.71,2.61Zm28.45,0c-2.05,0-3.72-1.17-3.72-2.61V12.36c0-1.44,1.67-2.61,3.72-2.61H74.69c2,0,3.71,1.17,3.71,2.61V26.64c0,1.44-1.66,2.61-3.71,2.61Zm28.45,0c-2.05,0-3.71-1.17-3.71-2.61V12.36c0-1.44,1.66-2.61,3.71-2.61h15.9c2.06,0,3.72,1.17,3.72,2.61V26.64c0,1.44-1.66,2.61-3.72,2.61Zm28.46,0c-2,0-3.72-1.17-3.72-2.61V12.36c0-1.44,1.67-2.61,3.72-2.61h15.92c2.05,0,3.72,1.17,3.72,2.61V26.64c0,1.44-1.67,2.61-3.72,2.61Z"/><path class="cls-1" d="M111.07,66.07h58a6,6,0,0,1,6,6V89.93a0,0,0,0,1,0,0h-70a0,0,0,0,1,0,0V72.07A6,6,0,0,1,111.07,66.07Z" transform="translate(62.07 218.07) rotate(-90)"/><path class="cls-1" d="M-12.93,66.07h58a6,6,0,0,1,6,6V89.93a0,0,0,0,1,0,0h-70a0,0,0,0,1,0,0V72.07A6,6,0,0,1-12.93,66.07Z" transform="translate(94.07 61.93) rotate(90)"/><rect class="cls-1" x="43.15" y="38.71" width="70" height="78" rx="6" transform="translate(0.44 155.85) rotate(-90)"/></g></g></svg>