<svg xmlns="http://www.w3.org/2000/svg" viewBox="0 0 405.18 156"><defs><style>.cls-1{fill:#e5dec6;}.cls-2{fill:#191d31;}</style></defs><g id="Layer_2" data-name="Layer 2"><g id="Layer_1-2" data-name="Layer 1"><rect class="cls-1" x="1" y="1" width="154" height="154" rx="1"/><path d="M154,2V154H2V2H154m0-2H2A2,2,0,0,0,0,2V154a2,2,0,0,0,2,2H154a2,2,0,0,0,2-2V2a2,2,0,0,0-2-2Z"/><path class="cls-2" d="M152,146.25h-7.83c-2,0-3.71-1.17-3.71-2.61V129.36c0-1.44,1.66-2.61,3.71-2.61H152V122H4v4.75H17.73c2.05,0,3.71,1.17,3.71,2.61v14.28c0,1.44-1.66,2.61-3.71,2.61H4V151H152Zm-121.64,0c-2.06,0-3.72-1.17-3.72-2.61V129.36c0-1.44,1.66-2.61,3.72-2.61H46.21c2,0,3.71,1.17,3.71,2.61v14.28c0,1.44-1.66,2.61-3.71,2.61Zm28.45,0c-2.05,0-3.72-1.17-3.72-2.61V129.36c0-1.44,1.67-2.61,3.72-2.61H74.69c2,0,3.71,1.17,3.71,2.61v14.28c0,1.44-1.66,2.61-3.71,2.61Zm28.45,0c-2.05,0-3.71-1.17-3.71-2.61V129.36c0-1.44,1.66-2.61,3.71-2.61h15.9c2.06,0,3.72,1.17,3.72,2.61v14.28c0,1.44-1.66,2.61-3.72,2.61Zm28.46,0c-2,0-3.72-1.17-3.72-2.61V129.36c0-1.44,1.67-2.61,3.72-2.61h15.92c2.05,0,3.72,1.17,3.72,2.61v14.28c0,1.44-1.67,2.61-3.72,2.61Z"/><path class="cls-2" d="M152,29.25h-7.83c-2,0-3.71-1.17-3.71-2.61V12.36c0-1.44,1.66-2.61,3.71-2.61H152V5H4V9.75H17.73c2.05,0,3.71,1.17,3.71,2.61V26.64c0,1.44-1.66,2.61-3.71,2.61H4V34H152Zm-121.64,0c-2.06,0-3.72-1.17-3.72-2.61V12.36c0-1.44,1.66-2.61,3.72-2.61H46.21c2,0,3.71,1.17,3.71,2.61V26.64c0,1.44-1.66,2.61-3.71,2.61Zm28.45,0c-2.05,0-3.72-1.17-3.72-2.61V12.36c0-1.44,1.67-2.61,3.72-2.61H74.69c2,0,3.71,1.17,3.71,2.61V26.64c0,1.44-1.66,2.61-3.71,2.61Zm28.45,0c-2.05,0-3.71-1.17-3.71-2.61V12.36c0-1.44,1.66-2.61,3.71-2.61h15.9c2.06,0,3.72,1.17,3.72,2.61V26.64c0,1.44-1.66,2.61-3.72,2.61Zm28.46,0c-2,0-3.72-1.17-3.72-2.61V12.36c0-1.44,1.67-2.61,3.72-2.61h15.92c2.05,0,3.72,1.17,3.72,2.61V26.64c0,1.44-1.67,2.61-3.72,2.61Z"/><path class="cls-2" d="M260.86,8.88c0,.46-.43.72-1.3.78-2.6.12-4.25.42-4.94.91s-1.47,1.95-2.34,4.37c-.52,1.33-1.3,3.36-2.34,6.07q-1.12,3.38-3.55,10.4-1.23,3.29-3.67,10l-4.28,11.87q-4.45,12.59-5,14.49c-.23.75-.49,1.13-.78,1.13s-.64-.27-.87-.82-.9-2.53-2-5.94q-2.18-6.75-6.34-16.81l-3-7.11q-8.65,18.56-12.47,29.47c-.29.81-.6,1.21-.95,1.21s-1-1.53-2.17-4.6l-10.57-27.6q-3.81-10.42-9.8-24.83a2.86,2.86,0,0,0-2-1.91,11.55,11.55,0,0,0-3-.26c-1.5,0-2.26-.26-2.26-.78s.41-.69,1.22-.69h22.79c.75,0,1.13.28,1.13.86s-.92.74-2.77.69c-1,0-1.48.26-1.48.77a2.07,2.07,0,0,0,.18.78q1.89,5.25,5.79,15.67l8.9,22.91L219.13,36q-1.27-3.8-4.93-13.61c-.47-1-1.1-2.59-1.92-4.7-.17-.52-.46-1.31-.87-2.4q-1.49-3.93-2.44-4.74c-.64-.54-2-.81-4-.81-.58-.06-.87-.32-.87-.77s.55-.77,1.64-.77h35c1.1-.06,1.65.2,1.65.77s-.43.69-1.3.69c-4.1-.06-6.47.64-7.11,2.07a137.84,137.84,0,0,0-6.15,13.2q3,7.78,9.6,24.66c.94-2.36,1.93-5,3-7.87q1.4-3.65,4.53-12.39,2-5.8,3.4-9.44,2.35-6.15,2.36-8A2,2,0,0,0,249,9.75a15.44,15.44,0,0,0-3.12-.18c-.93,0-1.39-.23-1.39-.69s.43-.69,1.3-.69h6.85c2.94.05,5.17.05,6.67,0H260Q260.86,8.19,260.86,8.88ZM231.13,12q0-2.33-4.16-2.32c-2.83,0-4.25.52-4.25,1.55q0,2.16,4.16,11Q231.13,13.45,231.13,12Z"/><path class="cls-2" d="M298,63.49c0,.47-.46,1.12-1.39,1.94a13,13,0,0,1-9.19,3.43q-3.56,0-5.15-1.49c-1.07-1-1.78-2.78-2.13-5.36q-3.9,7.11-10.66,7.11a8.06,8.06,0,0,1-6-2.34,8.3,8.3,0,0,1-2.3-6.07q0-10.92,18.72-12.91V46q0-8.67-.6-10.66l-.09-.44q-1.22-4.34-6.15-4.33a6.4,6.4,0,0,0-4.6,1.65,4.55,4.55,0,0,0-1.73,3.2c0,.58.69.93,2.08,1q3.12.27,3.12,3.82a4.28,4.28,0,0,1-1.26,3.16,4.39,4.39,0,0,1-3.25,1.26,5.76,5.76,0,0,1-4.12-1.52,5.08,5.08,0,0,1-1.6-3.86q0-3.72,3.73-6.76t9.79-3q9,0,12.57,3.21,2.86,2.69,2.86,9.36V56.9c0,2.89,0,4.56.09,5,.29,2.42,1.12,3.64,2.51,3.64,1,0,2.2-.7,3.64-2.08.29-.29.52-.44.69-.44A.39.39,0,0,1,298,63.49ZM279.84,53.17V48.93q-8.4,1.64-8.4,9.53c0,4,1.38,6.07,4.16,6.07,1.56,0,2.65-.87,3.29-2.6S279.84,57.28,279.84,53.17Z"/><path class="cls-2" d="M326.3,62.53c0,.64-.55,1.48-1.66,2.52q-4.27,4.07-11.79,4.07-6.9,0-9.08-3.38a5.64,5.64,0,0,1-1-2.43c-.09-.75-.13-2.68-.13-5.8V53.35c.11-1.1.17-2.26.17-3.47l-.17-1.82V34c0-1-.15-1.65-.43-1.82a7,7,0,0,0-2.6-.26c-1.74,0-2.61-.23-2.61-.7s.32-.57,1-.69q8.15-.26,14-8.84c.52-.81.92-1.22,1.21-1.22s.52.41.52,1.22c-.05,5,.15,7.68.61,8.15s1.88.69,4.25.69a25.58,25.58,0,0,0,5.11-.35.89.89,0,0,1,.35-.08c.23,0,.34.18.34.54,0,.85-.37,1.27-1.11,1.27q-3.52.09-7.82.09h-1.21v1.81q0,23.12.35,27.08c.53,3.34,2.17,5,4.93,5,1.23,0,2.81-.86,4.75-2.6.94-.8,1.52-1.21,1.76-1.21S326.3,62.25,326.3,62.53Z"/><path class="cls-2" d="M358.89,38.44a4.76,4.76,0,0,1-1.21,3.38,4.1,4.1,0,0,1-3.12,1.3q-4.6,0-4.6-4.08a6.91,6.91,0,0,1,.57-2.47,6.72,6.72,0,0,0,.56-2,3.71,3.71,0,0,0-1.26-2.82,4.32,4.32,0,0,0-3.07-1.17q-7.89,0-7.89,17.6,0,10.05,3.47,14.38a8.18,8.18,0,0,0,6.58,3.3q4.08,0,8.33-5.29c.34-.46.66-.69.95-.69s.35.17.35.52c0,1.09-1,2.63-3.13,4.59a15.22,15.22,0,0,1-10.83,4.25,18,18,0,0,1-13.3-5.59,18.59,18.59,0,0,1-5.51-13.57,20.08,20.08,0,0,1,5.81-14.6,19.21,19.21,0,0,1,14.3-5.94,15.88,15.88,0,0,1,9.23,2.6C357.64,33.84,358.89,36,358.89,38.44Z"/><path class="cls-2" d="M405.18,67.82c0,.35-.26.52-.78.52h-6.94a91.35,91.35,0,0,1-9.18-.26h-1.39l-2.08.26c-.75.06-1.13-.16-1.13-.65s.15-.56.44-.56h2c1.27.06,2-.29,2.17-1q.17-.69.17-8.67V44.5q0-8.05-.78-9.53-1.11-2.25-4.3-2.25a5.69,5.69,0,0,0-5.16,3.05q-.85,1.47-.86,6.35V65.9c-.05.87,1.14,1.31,3.57,1.31.51,0,.77.17.77.52s-.38.61-1.13.61h-.69a6.42,6.42,0,0,0-2.08-.26H374l-4.85.09-5.11.17h-2.6c-.87,0-1.3-.17-1.3-.52a.35.35,0,0,1,.17-.35,2.37,2.37,0,0,1,.78-.08,15.72,15.72,0,0,0,3.9-.26c.4-.18.66-.84.78-2q.09-1,.09-10.4V22.92q0-9.36-.39-10.79c-.26-1-1.49-1.43-3.69-1.43-1.67,0-2.51-.17-2.51-.52s1-.58,2.93-.69a53.63,53.63,0,0,0,12.51-2.26,6.27,6.27,0,0,1,1.64-.34c.46,0,.69,1.62.69,4.85V35.66a15.74,15.74,0,0,1,4.89-4.85,13.53,13.53,0,0,1,6.46-1.3q8.58,0,10.75,6.93a24.37,24.37,0,0,1,.78,7.28v20.2c0,1.5.25,2.43.74,2.77s1.72.52,3.68.52C404.89,67.21,405.18,67.42,405.18,67.82Z"/><path class="cls-2" d="M228.18,132.89c0,1.1,0,2-.08,2.77a50.31,50.31,0,0,0-.26,6.16l.08,6.15q-11.08-.43-40.13-.43h-3.64c-2.54,0-3.81-.25-3.81-.74s.4-.74,1.21-.74c2.89-.05,4.74-.46,5.55-1.21.52-.46.78-1.85.78-4.15V93.79c0-2-.18-3.17-.53-3.64a3.73,3.73,0,0,0-3.25-1.21h-2.19c-.64,0-1-.21-1-.65s.41-.65,1.22-.65h24.35c.58,0,.87.23.87.7s-.75.78-2.25.78c-2.14,0-3.4.26-3.77.78s-.57,2.8-.57,6.84v20.63q0,6.33.35,28.35c1.1.05,2.34.08,3.73.08a75.69,75.69,0,0,0,12.57-.69q5.46-1.12,7.45-5.55a31.75,31.75,0,0,0,1.91-7.19c.17-.93.43-1.39.78-1.39S228.18,131.62,228.18,132.89Z"/><path class="cls-2" d="M260.51,147c0,.4-.26.6-.77.6H237.89c-.69,0-1-.18-1-.55s.67-.44,2-.49c2-.05,3.12-.27,3.46-.65s.52-1.53.52-3.44v-25c0-2.2-.19-3.52-.56-4s-1.52-.66-3.42-.66a13.47,13.47,0,0,1-2.13-.08c-.2-.06-.3-.26-.3-.61s.43-.61,1.3-.61A42.71,42.71,0,0,0,254,108.62c.12.69.26,2.6.44,5.72v27.3c0,2.37.21,3.76.65,4.16s1.92.61,4.46.61C260.2,146.41,260.51,146.61,260.51,147Zm-6.06-55a5.72,5.72,0,0,1-1.69,4.16A5.46,5.46,0,0,1,248.68,98a5.71,5.71,0,0,1-4.16-1.65,5.55,5.55,0,0,1-1.69-4.16,5.18,5.18,0,0,1,1.69-4,6.13,6.13,0,0,1,4.34-1.56,5.47,5.47,0,0,1,4,1.56A5.21,5.21,0,0,1,254.45,92.06Z"/><path class="cls-2" d="M296.83,135.57a12.83,12.83,0,0,1-3.54,9.41,12.29,12.29,0,0,1-9.16,3.6,19.86,19.86,0,0,1-6.57-1.39,16.15,16.15,0,0,0-4.06-1.13,2.1,2.1,0,0,0-2.16,1.26c-.34.84-.6,1.26-.77,1.26-.35,0-.52-.21-.52-.61a13.7,13.7,0,0,1,.14-1.66,56.9,56.9,0,0,0,.2-5.76v-4.27c0-.64.15-1,.44-1s.6.44.77,1.3a12.57,12.57,0,0,0,4.4,7.68,12.25,12.25,0,0,0,8.12,3.07,6.23,6.23,0,0,0,4.61-1.77A6.3,6.3,0,0,0,290.5,141a5.09,5.09,0,0,0-1.64-3.82q-1.22-1.12-6.5-2.86-6.51-2.16-9.41-5.24a11,11,0,0,1-2.9-7.84,12,12,0,0,1,3.46-8.67A11.44,11.44,0,0,1,282,109a31.09,31.09,0,0,1,6.59,1.22,5,5,0,0,0,1,.17c1.27,0,2.22-.78,2.86-2.34.11-.29.26-.43.43-.43.4,0,.61.34.61,1l-.09,1.64a5.65,5.65,0,0,0-.09,1.22,62.73,62.73,0,0,0,.44,7.28v.43c0,.47-.18.7-.52.7s-.52-.26-.7-.78q-2.5-8.85-10.22-8.85a7.12,7.12,0,0,0-4.73,1.56,5,5,0,0,0-1.86,4,4.39,4.39,0,0,0,1.56,3.56,22.39,22.39,0,0,0,6.07,2.94q7.88,2.77,10.66,5.55T296.83,135.57Z"/><path class="cls-2" d="M334.62,142c0,.64-.55,1.47-1.66,2.51q-4.27,4.08-11.79,4.08-6.89,0-9.08-3.38a5.69,5.69,0,0,1-1-2.43C311,142,311,140.08,311,137V132.8c.11-1.1.17-2.25.17-3.47l-.17-1.82v-14c0-1-.15-1.65-.43-1.82a7.25,7.25,0,0,0-2.6-.26q-2.61,0-2.61-.69c0-.35.32-.58,1-.7q8.14-.25,14-8.84c.52-.8.92-1.21,1.21-1.21s.52.41.52,1.21q-.07,7.45.61,8.15c.46.46,1.88.69,4.25.69a25.79,25.79,0,0,0,5.11-.34.76.76,0,0,1,.35-.09c.23,0,.34.18.34.55,0,.84-.37,1.27-1.11,1.27q-3.53.09-7.82.09h-1.21v1.81q0,23.11.35,27.08.79,5,4.93,5,1.84,0,4.75-2.6c.94-.81,1.52-1.21,1.76-1.21S334.62,141.7,334.62,142Z"/><path class="cls-2" d="M111.07,66.07h58a6,6,0,0,1,6,6V89.93a0,0,0,0,1,0,0h-70a0,0,0,0,1,0,0V72.07A6,6,0,0,1,111.07,66.07Z" transform="translate(62.07 218.07) rotate(-90)"/><path class="cls-2" d="M-12.93,66.07h58a6,6,0,0,1,6,6V89.93a0,0,0,0,1,0,0h-70a0,0,0,0,1,0,0V72.07A6,6,0,0,1-12.93,66.07Z" transform="translate(94.07 61.93) rotate(90)"/><rect class="cls-2" x="43.15" y="38.71" width="70" height="78" rx="6" transform="translate(0.44 155.85) rotate(-90)"/></g></g></svg>